<svg width="1440" height="1275" viewBox="0 0 1440 1275" fill="none" xmlns="http://www.w3.org/2000/svg">
<rect width="1440" height="1175" transform="matrix(1 0 0 -1 0 1225)" fill="#D6F5DB"/>
<path d="M1050 1274.12C1204.89 1274.12 1330.45 1251.93 1330.45 1224.56C1330.45 1197.19 1204.89 1175 1050 1175C895.114 1175 769.552 1197.19 769.55 1224.56C769.55 1251.93 895.113 1274.12 1050 1274.12Z" fill="#D6F5DB"/>
<path d="M988.944 1219L634 1219C660.693 1221.47 724.467 1229.16 766.021 1240.21C807.576 1251.27 931.951 1261.59 988.944 1265.38L988.944 1219ZM1085.06 1270.48C1142.05 1266.7 1266.42 1256.37 1307.98 1245.32C1349.53 1234.27 1413.31 1226.57 1440 1224.1L1085.06 1224.1L1085.06 1270.48Z" fill="#D6F5DB"/>
<path d="M390 1274.12C544.888 1274.12 670.45 1251.93 670.45 1224.56C670.448 1197.19 544.887 1175 390 1175C235.114 1175 109.552 1197.19 109.55 1224.56C109.55 1251.93 235.113 1274.12 390 1274.12Z" fill="#D6F5DB"/>
<path d="M362.944 1224L7.99999 1224C34.6928 1226.47 98.467 1234.16 140.021 1245.22C181.576 1256.27 305.951 1266.59 362.944 1270.38L362.944 1224ZM433.056 1270.38C490.049 1266.59 614.424 1256.27 655.979 1245.22C697.533 1234.16 761.307 1226.47 788 1224L433.056 1224L433.056 1270.38Z" fill="#D6F5DB"/>
<path d="M686 -6.54765e-06C840.888 2.77354e-05 966.45 22.1888 966.45 49.5596C966.448 76.93 840.887 99.1181 686 99.1182C531.114 99.1181 405.552 76.93 405.55 49.5596C405.55 22.1888 531.113 2.7176e-05 686 -6.54765e-06Z" fill="#D6F5DB"/>
<path d="M650.944 50.0154L296 50.0154C322.693 47.5486 386.467 39.8519 428.021 28.8005C469.576 17.7491 593.951 7.42091 650.944 3.63842L650.944 50.0154ZM721.056 3.63842C778.049 7.4209 902.424 17.7491 943.979 28.8005C985.533 39.8518 1049.31 47.5485 1076 50.0154L721.056 50.0154L721.056 3.63842Z" fill="#D6F5DB"/>
</svg>
