<svg width="1657" height="1453" viewBox="0 0 1657 1453" fill="none" xmlns="http://www.w3.org/2000/svg">
<rect width="1657" height="1371" transform="matrix(1 0 0 -1 0 1371)" fill="#D6F5DB"/>
<path d="M1249.79 1452.96C1411.34 1452.96 1542.31 1416.48 1542.31 1371.48C1542.31 1326.48 1411.34 1290 1249.79 1290C1088.23 1290 957.268 1326.48 957.267 1371.48C957.267 1416.48 1088.23 1452.96 1249.79 1452.96Z" fill="#D6F5DB"/>
<path d="M1213.22 1370.73L843 1370.73C870.842 1374.79 937.362 1387.44 980.705 1405.61C1024.05 1423.78 1153.78 1440.76 1213.22 1446.98L1213.22 1370.73ZM1286.35 1446.98C1345.8 1440.76 1475.53 1423.78 1518.87 1405.61C1562.21 1387.44 1628.73 1374.79 1656.58 1370.73L1286.35 1370.73L1286.35 1446.98Z" fill="#D6F5DB"/>
<path d="M407.494 1451.47C561.779 1451.47 686.851 1414.99 686.851 1369.99C686.851 1324.99 561.778 1288.51 407.494 1288.51C253.209 1288.51 128.136 1324.99 128.135 1369.99C128.135 1414.99 253.209 1451.47 407.494 1451.47Z" fill="#D6F5DB"/>
<path d="M372.574 1369.24L19.0112 1369.24C45.6003 1373.3 109.126 1385.95 150.519 1404.12C191.912 1422.29 315.803 1439.27 372.574 1445.49L372.574 1369.24ZM442.413 1445.49C499.184 1439.27 623.075 1422.29 664.467 1404.12C705.86 1385.95 769.386 1373.3 795.975 1369.24L442.413 1369.24L442.413 1445.49Z" fill="#D6F5DB"/>
</svg>
