<svg width="121" height="38" viewBox="0 0 121 38" fill="none" xmlns="http://www.w3.org/2000/svg">
<g clip-path="url(#clip0_1194_811)">
<path d="M118.243 26.41L117.654 26.2623C117.086 26.1145 116.497 25.9034 116.349 25.7556C116.16 25.5867 116.034 25.3334 116.034 25.0589C116.034 24.5734 116.497 24.0456 117.275 24.0456C118.054 24.0456 118.264 24.2145 118.622 24.4889C119.148 24.89 119.253 25.2911 119.38 25.7978V25.9034H120.2V23.1167H119.38V23.2434C119.317 23.7289 119.295 23.7289 119.106 23.7289C118.917 23.7289 118.917 23.7078 118.727 23.5811C118.391 23.4123 117.843 23.2011 117.128 23.2011C115.234 23.2011 114.371 24.5945 114.371 25.9878C114.371 27.9934 115.823 28.4789 117.107 28.9011C117.233 28.9434 117.359 28.9645 117.507 29.0067C118.264 29.1967 119.211 29.45 119.211 30.21C119.211 30.97 118.643 31.3078 117.696 31.3078C116.749 31.3078 116.434 31.0545 115.992 30.6323C115.381 30.0834 115.255 29.4078 115.15 28.8167L115.108 28.6478H114.287V31.8989H115.171V31.73C115.129 31.6245 115.129 31.4767 115.192 31.4134C115.192 31.4134 115.234 31.3711 115.318 31.3711C115.402 31.3711 115.529 31.4556 115.718 31.5611L115.865 31.6456C116.076 31.7934 116.791 32.1311 117.654 32.1311C119.969 32.1311 120.79 30.2734 120.79 29.0278C120.79 27.1278 119.211 26.6634 118.243 26.3889V26.41Z" fill="white"/>
<path d="M108.1 27.2967H113.698V27.1278C113.53 26.2623 113.403 25.3545 112.583 24.4678C111.846 23.6656 110.752 23.2012 109.573 23.2012C106.985 23.2012 105.133 25.0801 105.133 27.6556C105.133 30.2312 107.069 32.1312 109.742 32.1312C112.414 32.1312 113.172 30.3367 113.572 29.5767L113.635 29.4501L113.004 29.1545L112.877 29.1123L112.814 29.2178C112.351 29.9778 111.552 31.2445 109.994 31.2445C108.437 31.2445 108.143 29.8723 108.121 28.6901C108.121 28.3312 108.121 27.9934 108.121 27.6556C108.121 27.5289 108.121 27.4234 108.121 27.2967H108.1ZM110.815 25.4601V26.4523H108.143V25.5656C108.248 24.6578 108.416 23.9823 109.573 23.9823C110.731 23.9823 110.752 24.7634 110.815 25.4601Z" fill="white"/>
<path d="M102.166 21.5546C103.029 21.5546 103.723 20.858 103.723 19.9924C103.723 19.1268 103.029 18.4302 102.166 18.4302C101.303 18.4302 100.609 19.1268 100.609 19.9924C100.609 20.858 101.303 21.5546 102.166 21.5546Z" fill="white"/>
<path d="M103.786 23.2646H103.639C102.713 23.328 102.208 23.3702 101.724 23.4124H101.661C101.177 23.4124 100.714 23.4546 99.8724 23.4546H99.7251V24.2569H101.051V31.118H99.7251V31.9202H105.028V31.118H103.786V23.2646Z" fill="white"/>
<path d="M95.5374 23.2222C94.3379 23.2222 93.6855 23.7922 93.1805 24.3833L93.2226 23.2644H93.0542C91.8127 23.4544 91.6233 23.4544 89.2874 23.4544H89.1401V24.2777H90.4027V36.8177H89.1401V37.6622H94.7587V36.8177H93.1805V31.0122C93.6855 31.5611 94.38 32.1733 95.6636 32.1733C96.9473 32.1733 98.3361 31.0122 98.6307 30.6322C99.4094 29.5555 99.5146 28.5844 99.5146 27.8455C99.5146 24.4677 97.1367 23.2433 95.5584 23.2433L95.5374 23.2222ZM94.1485 24.5733C94.4641 24.3411 94.7587 24.2355 95.0534 24.2355C95.6636 24.2355 96.0634 24.6366 96.2739 25.4599C96.4422 26.1566 96.4843 26.8955 96.5054 27.5077C96.5264 28.8588 96.4633 30.3155 95.8951 30.9066C95.7057 31.0966 95.4532 31.2022 95.1375 31.2022C94.422 31.2022 93.7487 30.5266 93.433 29.9144C93.0963 29.2177 93.0332 28.3944 93.0332 27.6977C93.0332 25.6922 93.6224 24.9744 94.1485 24.5733Z" fill="white"/>
<path d="M89.2456 27.4867C89.0562 24.5523 86.6783 23.2012 84.5319 23.2012C82.3854 23.2012 79.7129 24.4045 79.7129 27.6345C79.7129 30.8645 81.2491 32.1101 84.595 32.1101C87.9409 32.1101 88.6353 30.379 88.9931 29.3656C89.2035 28.8378 89.2877 28.1834 89.2456 27.4867ZM83.0378 30.5478C82.9115 30.3156 82.7011 29.9567 82.7011 27.6134C82.7011 25.2701 82.8273 24.0034 84.5108 24.0034C86.1943 24.0034 85.7734 24.3412 86.047 24.9956C86.1522 25.2278 86.2574 25.4812 86.2785 27.5289C86.2785 28.7745 86.2995 30.3367 85.6261 31.0334C85.3525 31.3078 84.9948 31.4345 84.5319 31.4345C83.5639 31.4345 83.143 30.7378 83.0378 30.5267V30.5478Z" fill="white"/>
<path d="M77.7979 23.2221C77.0193 23.2221 76.388 23.5177 75.883 24.1299C75.7567 24.2777 75.6515 24.4255 75.5463 24.5733V23.2644C75.5673 23.2644 75.42 23.2644 75.42 23.2644C74.3047 23.391 73.1052 23.4333 71.5901 23.4333H71.4428V24.2355H72.7685V31.0966H70.5379V25.9455C70.5379 25.291 70.5379 24.6155 69.9698 23.9821C69.7172 23.6866 69.107 23.201 67.8233 23.201C66.5397 23.201 65.256 24.0455 64.7299 24.6155V17.6699L64.4353 17.7121C64.1197 17.7544 63.7199 17.7966 62.7519 17.8599C61.9522 17.9021 61.2999 17.9021 60.7738 17.9021H60.6265V18.7255H62.0364V31.1177H60.6265V31.9199H65.8873V31.1177H64.7089V27.6977C64.7089 26.5788 64.751 25.4177 65.8032 24.6999C66.0767 24.4888 66.4555 24.3833 66.8343 24.3833C67.2131 24.3833 67.3604 24.4677 67.5287 24.6155C67.8233 24.911 67.8444 25.5021 67.8444 26.1144V31.1388H66.7712V31.941H77.1456V31.1388H75.5252V27.571C75.5252 26.8533 75.6515 25.8188 76.2828 24.9533C76.5985 24.5521 76.9562 24.2144 77.0614 24.2144C77.1246 24.2144 77.1666 24.2355 77.1877 24.2566C77.1877 24.2566 77.1877 24.2777 77.1666 24.2988C77.1666 24.3199 77.1246 24.341 77.1246 24.3833C76.9772 24.5733 76.851 24.8055 76.851 25.1855C76.851 25.8188 77.335 26.4944 78.2399 26.4944C79.1447 26.4944 79.6919 25.5655 79.6919 25.0166C79.6919 24.1721 79.1026 23.2433 77.84 23.2433L77.7979 23.2221Z" fill="white"/>
<path d="M61.0682 29.5346L60.2475 29.3657L60.2054 29.4924C59.9319 30.4001 59.6162 30.8224 59.2164 30.8224C58.8166 30.8224 58.6693 30.4212 58.6693 29.7668V24.2357H60.3738V23.4335H58.6693V20.1401H57.8906L57.8486 20.2246C56.7122 22.6946 55.5127 23.2646 54.7131 23.6235L54.6289 23.6657V24.2146H56.0388L55.9967 29.6612C55.9967 30.4635 55.9967 32.1101 58.1221 32.1101C60.2475 32.1101 60.7736 30.5057 61.0261 29.6612L61.0682 29.5135V29.5346Z" fill="white"/>
<path d="M53.9342 26.0301C53.9342 25.1645 53.9342 23.8556 52.2507 23.3701C51.893 23.2645 51.4931 23.2012 51.0933 23.2012C50.6935 23.2012 50.0622 23.3067 49.5571 23.4967C48.9048 23.7712 48.5681 24.0667 48.1893 24.4467V23.2434H48.042C47.4738 23.2645 46.9688 23.3067 46.4638 23.3278C45.7062 23.3701 45.0118 23.4123 44.2752 23.4123H44.1279V24.2145H45.4537V31.0756H44.1279V31.8778H49.4309V31.0756H48.1893V27.5923C48.1893 26.6845 48.1893 26.3678 48.2735 26.0512C48.526 25.0167 49.5571 24.3834 50.1885 24.3834C51.1565 24.3834 51.2406 25.1434 51.2406 26.3889V31.0967H50.1464V31.8989H55.2389V31.0967H53.9552V26.0301H53.9342Z" fill="white"/>
<path d="M43.4759 30.5055C43.3496 30.6111 43.2023 30.7166 43.034 30.7166C42.7394 30.7166 42.6973 30.3999 42.6973 29.8511V25.9033C42.6973 25.2277 42.6973 24.1933 41.3084 23.5811C40.7402 23.3488 40.0458 23.2222 39.3093 23.2222C37.2891 23.2222 35.7529 24.1933 35.7529 25.5022C35.7529 26.8111 36.279 26.7266 36.9945 26.7266C37.71 26.7266 38.2571 26.1777 38.2571 25.4811C38.2571 24.7844 38.215 25.1644 38.1519 25.0377C38.1098 24.9533 38.0677 24.8688 38.0256 24.8055C37.9835 24.7422 37.9415 24.6788 37.9204 24.5944C37.8783 24.5311 37.8783 24.4888 37.8783 24.4466C37.8783 24.3622 38.1308 24.0244 38.9095 24.0244C40.0668 24.0244 40.13 24.5311 40.13 25.3544V26.7688C38.8884 26.8955 37.3733 27.0433 36.3001 27.8455C35.5425 28.3944 35.1006 29.1966 35.1006 30.0199C35.1006 30.8433 35.2268 32.1311 37.5416 32.1311C39.8564 32.1311 39.8143 31.3499 40.2352 30.8855C40.5088 31.3922 40.9928 32.1311 42.066 32.1311C43.1392 32.1311 43.7705 31.4344 44.0862 31.1177L44.1703 31.0333L43.7074 30.3788L43.539 30.5055H43.4759ZM39.6039 30.4211C39.3514 30.6111 39.0988 30.6955 38.8253 30.6955C38.2571 30.6955 37.6468 30.2733 37.6468 29.3444C37.6468 27.8244 39.0568 27.6555 40.0879 27.5922V28.9855C40.0879 29.4922 40.0879 29.9988 39.6039 30.3999V30.4211Z" fill="white"/>
<path d="M33.375 17.67L33.2066 17.7123C32.6595 17.8178 31.923 17.8811 31.1233 17.9023C30.4289 17.9023 29.7976 17.9023 29.4188 17.9023H29.2715V18.7467H30.6393V31.0967H29.2715V31.8989H34.6586V31.0967H33.375V17.6489V17.67Z" fill="white"/>
<path d="M26.1358 18.4512C25.273 18.4512 24.5786 19.1478 24.5786 20.0134C24.5786 20.8789 25.273 21.5756 26.1358 21.5756C26.9986 21.5756 27.693 20.8789 27.693 20.0134C27.693 19.1478 26.9986 18.4512 26.1358 18.4512Z" fill="white"/>
<path d="M27.7562 23.2646H27.6089C26.683 23.328 26.178 23.3702 25.694 23.4124H25.6308C25.1468 23.4124 24.6839 23.4546 23.8421 23.4546H23.6948V24.2569H25.0206V31.118H23.6948V31.9202H28.9978V31.118H27.7562V23.2646Z" fill="white"/>
<path d="M22.1375 25.9455C22.1375 25.291 22.1375 24.6155 21.5693 23.9821C21.3168 23.6866 20.7065 23.201 19.4229 23.201C18.1392 23.201 16.8556 24.0455 16.3295 24.6155V17.6699L16.0349 17.7121C15.7192 17.7544 15.3194 17.7966 14.3725 17.8599C13.5728 17.9021 12.9205 17.9021 12.3944 17.9021H12.2471V18.7255H13.657V31.1177H12.2471V31.9199H17.5079V31.1177H16.3295V27.6977C16.3295 26.5788 16.3716 25.4177 17.4238 24.6999C17.6973 24.4888 18.0761 24.3833 18.4549 24.3833C18.8337 24.3833 18.981 24.4677 19.1493 24.6155C19.4439 24.911 19.465 25.5021 19.465 26.1144V31.1388H18.3918V31.941H23.4632V31.1388H22.1796V25.9877L22.1375 25.9455Z" fill="white"/>
<path d="M10.9426 18.6834C9.89045 17.9023 8.66993 17.8601 7.57567 17.8179H7.47045H0.210449V18.6201H1.87288V31.1179H0.210449V31.9201H6.88123V31.1179H5.05045V25.4601H7.55462C8.58575 25.4601 9.91149 25.3545 10.9637 24.5945C11.595 24.1301 12.3736 23.2434 12.3736 21.7234C12.3736 20.2034 11.8475 19.3801 10.9426 18.7045V18.6834ZM5.05045 18.6201H6.64975C7.32314 18.6201 8.08071 18.6834 8.58575 19.359C8.90141 19.7812 9.02767 20.4568 9.02767 21.639C9.02767 23.4968 8.43845 24.0245 8.31219 24.1301C7.80714 24.5101 7.04958 24.6156 6.73393 24.6156H5.09254V18.6412L5.05045 18.6201Z" fill="white"/>
<path d="M82.5749 12.2654C82.175 12.6454 81.8594 13.1943 81.8594 14.0176C81.8594 14.841 81.9015 14.8621 82.3855 15.3687C82.4275 15.4321 82.4696 15.4743 82.5328 15.5165C82.7642 15.7487 82.9747 15.8965 83.1851 15.9599C82.8905 16.0865 82.5538 16.2765 82.3223 16.551C82.0698 16.7832 81.8804 17.121 81.8804 17.5854C81.8804 18.0499 82.0909 18.5354 82.5328 18.9365C83.2272 19.6754 84.4898 20.2032 86.3416 20.2032C89.2667 20.2032 91.1396 18.7043 91.1396 16.361C91.1396 14.0176 91.0764 15.2421 90.6345 14.6087C89.898 13.5532 89.1194 13.5532 87.8357 13.5532H84.3425C83.627 13.5532 83.2693 13.511 83.2693 13.0465C83.2693 12.5821 83.9216 12.1599 84.4898 11.9276C84.8896 12.1176 85.4368 12.371 86.4889 12.371C88.3618 12.371 90.2557 11.3365 90.2557 9.05652C90.2557 6.77652 90.0453 7.97985 89.8349 7.59985C89.8769 7.43096 89.898 7.38874 89.898 7.38874C89.898 7.38874 89.898 7.38874 89.919 7.38874C89.919 7.38874 89.9401 7.40985 89.9611 7.43096C89.9822 7.47318 90.0242 7.51541 90.0663 7.53652C90.2136 7.70541 90.4662 7.83207 90.7187 7.83207C91.3921 7.83207 91.7077 7.3043 91.7077 6.79763C91.7077 6.29096 91.1816 5.76318 90.6555 5.76318C90.1295 5.76318 90.0453 5.86874 89.7928 6.05874C89.7086 6.12207 89.6455 6.18541 89.5823 6.26985C89.3929 6.43874 89.2877 6.64985 89.2246 6.83985C88.6775 6.37541 87.9199 5.86874 86.531 5.86874C85.1422 5.86874 84.2794 6.24874 83.5218 6.98763C82.9536 7.49429 82.5749 8.21207 82.5749 9.14096C82.5749 10.0699 82.9957 10.6821 83.4376 11.1043C83.5639 11.231 83.6902 11.3576 83.8164 11.4632C83.2903 11.6743 82.9116 11.9487 82.638 12.2443L82.5749 12.2654ZM89.6034 16.4454C89.7296 16.6143 89.8349 16.8254 89.8349 17.1632C89.8349 17.501 89.6665 17.9865 89.3509 18.3243C88.7827 18.8732 87.7726 19.2743 86.3416 19.2743C84.9107 19.2743 83.606 18.2821 83.606 17.4165C83.606 16.551 83.8585 16.551 84.1952 16.2132H88.7196C89.0773 16.2132 89.3929 16.2554 89.6244 16.4243L89.6034 16.4454ZM87.2886 7.15652C87.478 7.57874 87.478 8.02207 87.478 9.14096C87.478 10.2599 87.478 10.8721 87.0992 11.3154C86.9309 11.4632 86.7204 11.5265 86.4048 11.5265C85.3316 11.5265 85.2053 10.7454 85.2053 9.07763C85.2053 7.40985 85.2684 6.67096 86.3837 6.67096C87.499 6.67096 86.8256 6.67096 87.0992 6.90318C87.1623 6.98763 87.2255 7.07207 87.2886 7.17763V7.15652Z" fill="white"/>
<path d="M79.418 13.8067H77.7977V10.2389C77.7977 9.52113 77.9239 8.48669 78.5552 7.62113C78.8709 7.22002 79.2286 6.88224 79.3338 6.88224C79.397 6.88224 79.4391 6.90335 79.4601 6.92447C79.4601 6.92447 79.4601 6.94558 79.4391 6.96669C79.4391 6.9878 79.397 7.00891 79.397 7.05113C79.2497 7.24113 79.1234 7.47336 79.1234 7.85336C79.1234 8.48669 79.6074 9.16224 80.5123 9.16224C81.4172 9.16224 81.9643 8.23336 81.9643 7.68447C81.9643 6.84002 81.3751 5.91113 80.1125 5.91113C78.8498 5.91113 78.7025 6.20669 78.1975 6.81891C78.0712 6.96669 77.966 7.11447 77.8608 7.26224V5.95336C77.8818 5.95336 77.7345 5.95336 77.7345 5.95336C76.6192 6.08002 75.4198 6.12224 73.9046 6.12224H73.7573V6.92447H75.0831V13.7856H73.7573V14.5878H79.4391V13.7856L79.418 13.8067Z" fill="white"/>
<path d="M69.7169 14.8411C72.221 14.8411 73.147 13.0467 73.5468 12.2867L73.6099 12.16L72.9786 11.8645L72.8524 11.8222L72.7892 11.9278C72.3263 12.6878 71.5266 13.9545 69.9694 13.9545C68.4122 13.9545 68.1176 12.5822 68.0965 11.4C68.0965 11.0411 68.0965 10.7034 68.0965 10.3656C68.0965 10.2389 68.0965 10.1334 68.0965 10.0067H73.6941V9.8378C73.5257 8.97224 73.3995 8.06447 72.5788 7.1778C71.8423 6.37558 70.748 5.91113 69.5696 5.91113C66.9812 5.91113 65.1294 7.79002 65.1294 10.3656C65.1294 12.9411 67.0654 14.8411 69.7379 14.8411H69.7169ZM70.7901 8.14891V9.14113H68.1176V8.25447C68.2228 7.34669 68.3911 6.67113 69.5485 6.67113C70.7059 6.67113 70.727 7.45224 70.7901 8.14891Z" fill="white"/>
<path d="M43.1181 13.8067H41.9187V9.79555C41.9818 8.88778 42.0239 8.29666 42.4448 7.74778C42.8025 7.32555 43.2655 7.09333 43.7495 7.09333C44.6122 7.09333 44.7806 7.74778 44.7806 8.97222V13.7856H43.7284V14.5878H48.5895V13.7856H47.411V10.1122C47.411 9.05666 47.4531 8.25444 48.1265 7.6C48.4842 7.26222 48.9262 7.05111 49.3049 7.05111C50.2308 7.05111 50.2729 7.74778 50.2729 8.86666V13.7856H49.1997V14.5878H57.7434V13.5956C58.3115 14.2078 59.1112 14.7989 60.458 14.7989C61.8048 14.7989 62.7307 14.3344 63.5093 13.3211C64.4773 12.0967 64.4773 10.8511 64.4773 10.45C64.4773 7.32555 62.3729 5.89 60.4159 5.89C58.4588 5.89 58.2905 6.52333 57.7644 7.09333V0.358887H57.5961C56.7333 0.527776 55.7863 0.591109 55.5128 0.591109H53.682V1.43555H55.0498V13.7856H52.9875V8.80333V8.71889C52.9244 7.66333 52.8402 5.89 50.1888 5.89C47.5373 5.89 47.6425 6.86111 47.2848 7.43111C46.8849 6.69222 46.2957 5.86889 44.5912 5.86889C42.8867 5.86889 42.4658 6.52333 41.9397 7.13555V5.93222H41.7714C40.6981 6.08 40.2773 6.12222 38.0677 6.12222H37.9204V6.92444H39.2041V13.7856H37.9204V14.5878H43.1181V13.7856V13.8067ZM60.0371 6.79778C61.1103 6.79778 61.2997 7.74778 61.3628 8.17C61.447 8.71889 61.4891 9.58444 61.4891 10.1756C61.4891 12.4978 61.3839 13.8911 60.0161 13.8911C58.6482 13.8911 58.6272 13.4689 58.2063 12.8144C57.7223 12.0544 57.6381 10.9778 57.6381 10.3867C57.6381 9.79555 57.6802 8.90889 58.1222 8.06444C58.522 7.34666 59.3216 6.79778 59.995 6.79778H60.0371Z" fill="white"/>
<path d="M33.1643 14.82C35.8579 14.82 37.2047 13.0889 37.5624 12.0756C37.7728 11.5478 37.857 10.8934 37.8149 10.1967C37.6255 7.26224 35.2476 5.91113 33.1012 5.91113C30.9548 5.91113 28.2822 7.11447 28.2822 10.3445C28.2822 13.5745 29.8184 14.82 33.1643 14.82ZM33.1012 6.69224C33.8167 6.69224 34.3638 7.03002 34.6374 7.68447C34.7426 7.91669 34.8478 8.17002 34.8688 10.2178C34.8688 11.4634 34.8899 13.0256 34.2165 13.7222C33.9429 13.9967 33.5852 14.1234 33.1222 14.1234C32.1542 14.1234 31.7334 13.4267 31.6281 13.2156C31.5019 12.9834 31.2914 12.6245 31.2914 10.2811C31.2914 7.9378 31.4177 6.67113 33.1012 6.67113V6.69224Z" fill="white"/>
<path d="M23.0217 14.82C25.7153 14.82 27.0621 13.0889 27.4198 12.0756C27.6303 11.5478 27.7144 10.8934 27.6723 10.1967C27.483 7.26224 25.105 5.91113 22.9586 5.91113C20.8122 5.91113 18.1396 7.11447 18.1396 10.3445C18.1396 13.5745 19.6758 14.82 23.0217 14.82ZM22.9376 6.69224C23.653 6.69224 24.2002 7.03002 24.4737 7.68447C24.579 7.91669 24.6842 8.17002 24.7052 10.2178C24.7052 11.4634 24.7263 13.0256 24.0529 13.7222C23.7793 13.9967 23.4216 14.1234 22.9586 14.1234C21.9906 14.1234 21.5697 13.4267 21.4645 13.2156C21.3383 12.9834 21.1278 12.6245 21.1278 10.2811C21.1278 7.9378 21.2541 6.67113 22.9376 6.67113V6.69224Z" fill="white"/>
<path d="M18.0131 13.8067H16.7295V0.358887L16.5611 0.401109C16.014 0.506664 15.2775 0.569998 14.4778 0.591109C13.7834 0.591109 13.1521 0.591109 12.7733 0.591109H12.626V1.43555H13.9938V13.7856H12.626V14.5878H18.0131V13.7856V13.8067Z" fill="white"/>
<path d="M6.54444 14.6091C8.56462 14.6091 11.0688 14.5668 12.142 12.5402C12.4156 12.0335 12.5418 11.4424 12.5418 10.8091C12.5418 8.36017 10.5217 7.57906 9.63783 7.34684C9.46948 7.30461 9.28009 7.26239 9.11174 7.24128C9.25905 7.22017 9.38531 7.17795 9.51157 7.13573C11.0267 6.67128 11.8895 5.55239 11.8895 4.07461C11.8895 2.59684 11.3424 1.83684 10.2481 1.18239C9.11175 0.549058 7.78601 0.527947 6.73383 0.506836H0.252441V1.30906H1.91488V13.8068H0.252441V14.6091H6.54444ZM6.54444 6.86128H5.09244V1.35128H6.46027C8.03853 1.35128 8.73296 1.75239 8.73296 4.18017C8.73296 6.60795 7.93331 6.86128 6.54444 6.86128ZM5.09244 7.70572H6.75488C7.38618 7.70572 8.08062 7.79017 8.58566 8.4235C9.02757 8.97239 9.0907 9.90128 9.0907 10.8091C9.0907 11.7168 9.04862 12.3713 8.71192 12.9413C8.22792 13.7435 7.51244 13.8068 6.88114 13.8068H5.0714V7.70572H5.09244Z" fill="white"/>
</g>
<defs>
<clipPath id="clip0_1194_811">
<rect width="121" height="38" fill="white"/>
</clipPath>
</defs>
</svg>
