<svg width="114" height="90" viewBox="0 0 114 90" fill="none" xmlns="http://www.w3.org/2000/svg">
<path d="M82.9668 18.001C95.6993 18.001 99.97 20.2283 101.363 21.9688C102.179 22.9895 101.08 24.001 99.7725 24.001H84.7002C83.0433 24.001 81.7002 25.3441 81.7002 27.001V42.001C81.7007 43.6574 83.0436 45.001 84.7002 45.001H106.566C108.223 45.001 109.566 46.3441 109.566 48.001V55.501C109.567 60.1564 111.642 62.5734 112.726 63.5176C113.123 63.8642 113.683 64.1015 113.84 64.6055C113.932 64.9017 114 65.3438 114 66.001C114 68.9001 113.746 69.001 108.3 69.001H92.3857C91.87 74.607 87.0675 79 81.2168 79C75.3662 79 70.5636 74.607 70.0479 69.001H42.3857C41.87 74.607 37.0675 79 31.2168 79C25.3662 79 20.5636 74.607 20.0479 69.001H3.63379C1.97723 69.001 0.634268 67.6574 0.633789 66.001C0.633789 65.8233 0.633791 65.6443 0.633789 65.4688C0.633963 63.8123 1.97233 62.7097 3.30273 61.7227C3.70706 61.4227 4.08676 61.1097 4.40527 60.835C5.00565 60.3171 5.32363 59.5555 5.33105 58.7627L5.67285 20.9736C5.68784 19.3276 7.02671 18.0011 8.67285 18.001H82.9668ZM24.7002 24.001C12.4135 24.001 11.4004 24.801 11.4004 34.501C11.4005 44.2001 12.4139 45.001 24.7002 45.001C36.9864 45.001 37.9999 44.2001 38 34.501C38 29.1015 37.4933 26.7007 35.9736 25.6006C34.5803 24.4006 31.54 24.001 24.7002 24.001ZM58.9004 24.001C46.6137 24.001 45.6006 24.801 45.6006 34.501C45.6006 44.2001 46.6141 45.001 58.9004 45.001C65.7395 45.001 68.7803 44.6011 70.1738 43.4014C72.9603 41.2014 72.96 27.8017 70.1738 25.6006C68.7805 24.4006 65.7402 24.001 58.9004 24.001Z" fill="#269B5F"/>
<circle cx="31" cy="69" r="5" fill="#EBFAED"/>
<circle cx="81" cy="69" r="5" fill="#EBFAED"/>
</svg>
