<svg width="137" height="83" viewBox="0 0 137 83" fill="none" xmlns="http://www.w3.org/2000/svg">
<path d="M7.96536 0C3.58063 0 0 3.72988 0 8.3003V58.1001C0 62.6692 3.58063 66.4004 7.96536 66.4004H9.65752C10.4653 75.6905 17.9603 83 27.0816 83C36.2046 83 43.6982 75.6905 44.5058 66.4004H92.4952C93.3017 75.6905 100.797 83 109.918 83C119.041 83 126.535 75.6905 127.342 66.4004H129.035C133.421 66.4004 137 62.6692 137 58.1001V8.3003C137 3.72988 133.421 0 129.035 0H7.96536ZM7.96536 3.31933H129.035C131.71 3.31933 133.813 5.51251 133.813 8.3003V11.6196H117.884C117.785 11.6106 117.685 11.6106 117.585 11.6196C116.824 11.7715 116.277 12.4717 116.29 13.28V29.8796C116.29 30.7973 117.004 31.5399 117.884 31.5399H133.813V39.8402H124.256C124.157 39.8299 124.057 39.8299 123.957 39.8402C123.196 39.9921 122.649 40.6923 122.662 41.5006V52.2388C119.464 48.6981 114.94 46.4802 109.918 46.4802C100.796 46.4802 93.3013 53.7898 92.4946 63.0799H44.5052C43.6974 53.7898 36.2037 46.4802 27.0811 46.4802C17.9594 46.4802 10.4646 53.7898 9.65698 63.0799H7.96481C5.28949 63.0799 3.18611 60.888 3.18611 58.1002V8.3004C3.18611 5.51258 5.28955 3.31943 7.96481 3.31943L7.96536 3.31933ZM12.4453 11.6196C11.6844 11.7715 11.1372 12.4717 11.1521 13.28V29.8796C11.1521 30.7973 11.8647 31.5399 12.7442 31.5399H33.4539C34.3333 31.5399 35.0473 30.7973 35.0473 29.8796V13.28C35.0473 12.3636 34.3334 11.6196 33.4539 11.6196H12.7442C12.6454 11.6106 12.5453 11.6106 12.4453 11.6196ZM44.3086 11.6196C43.5465 11.7715 43.0006 12.4717 43.0141 13.28V29.8796C43.0141 30.7973 43.7268 31.5399 44.6062 31.5399H65.316C66.1954 31.5399 66.9093 30.7973 66.9093 29.8796V13.28C66.9093 12.3636 66.1954 11.6196 65.316 11.6196H44.6062C44.5074 11.6106 44.4074 11.6106 44.3086 11.6196ZM76.1687 11.6196C75.4066 11.7715 74.8607 12.4717 74.8743 13.28V29.8796C74.8743 30.7973 75.587 31.5399 76.4664 31.5399H97.1761C98.0555 31.5399 98.7695 30.7973 98.7695 29.8796V13.28C98.7695 12.3636 98.0556 11.6196 97.1761 11.6196H76.4664C76.3676 11.6106 76.2675 11.6106 76.1687 11.6196ZM14.3393 14.9403H31.8624V28.2206H14.3393V14.9403ZM46.1994 14.9403H63.7225V28.2206H46.1994V14.9403ZM78.0596 14.9403H95.5827V28.2206H78.0596V14.9403ZM119.478 14.9403H133.815V28.2206H119.478V14.9403ZM125.85 43.1598H133.815V51.4601H125.85V43.1598ZM27.0827 49.7998C35.0199 49.7998 41.4204 56.4694 41.4204 64.7404C41.4204 73.0114 35.0199 79.681 27.0827 79.681C19.1455 79.681 12.745 73.0114 12.745 64.7404C12.745 56.4694 19.1455 49.7998 27.0827 49.7998ZM109.92 49.7998C117.858 49.7998 124.258 56.4694 124.258 64.7404C124.258 73.0114 117.858 79.681 109.92 79.681C101.983 79.681 95.5827 73.0114 95.5827 64.7404C95.5827 56.4694 101.983 49.7998 109.92 49.7998ZM124.606 54.7808H133.815V58.1001C133.815 60.8879 131.712 63.0798 129.037 63.0798H127.345C127.08 60.0448 126.126 57.2068 124.606 54.7804L124.606 54.7808ZM27.0811 56.4398C22.7012 56.4398 19.1158 60.1763 19.1158 64.7401C19.1158 69.304 22.7015 73.0404 27.0811 73.0404C31.4611 73.0404 35.0465 69.304 35.0465 64.7401C35.0465 60.1763 31.4608 56.4398 27.0811 56.4398ZM109.919 56.4398C105.539 56.4398 101.953 60.1763 101.953 64.7401C101.953 69.304 105.539 73.0404 109.919 73.0404C114.299 73.0404 117.884 69.304 117.884 64.7401C117.884 60.1763 114.298 56.4398 109.919 56.4398ZM27.0811 59.7605C29.7392 59.7605 31.8598 61.9704 31.8598 64.7401C31.8598 67.5099 29.7391 69.7198 27.0811 69.7198C24.4232 69.7198 22.3024 67.5099 22.3024 64.7401C22.3024 61.9704 24.4232 59.7605 27.0811 59.7605ZM109.919 59.7605C112.577 59.7605 114.698 61.9704 114.698 64.7401C114.698 67.5099 112.577 69.7198 109.919 69.7198C107.261 69.7198 105.14 67.5099 105.14 64.7401C105.14 61.9704 107.261 59.7605 109.919 59.7605Z" fill="#D8F3DC"/>
</svg>
