<svg width="128" height="128" viewBox="0 0 128 128" fill="none" xmlns="http://www.w3.org/2000/svg">
<mask id="mask0_1781_307" style="mask-type:alpha" maskUnits="userSpaceOnUse" x="0" y="0" width="128" height="128">
<rect width="127.841" height="127.841" fill="#D9D9D9"/>
</mask>
<g mask="url(#mask0_1781_307)">
<path d="M34.6236 106.535C26.5448 106.535 19.6422 103.738 13.916 98.145C8.18977 92.552 5.32666 85.716 5.32666 77.6372C5.32666 70.7124 7.41296 64.5423 11.5856 59.1268C15.7582 53.7113 21.218 50.249 27.9652 48.7397C30.1847 40.5721 34.6236 33.9581 41.282 28.8977C47.9404 23.8373 55.4866 21.3071 63.9206 21.3071C74.3077 21.3071 83.1189 24.9249 90.3544 32.1603C97.5899 39.3958 101.208 48.2071 101.208 58.5942C107.333 59.3044 112.416 61.9455 116.455 66.5176C120.495 71.0897 122.514 76.4387 122.514 82.5644C122.514 89.2228 120.184 94.8824 115.523 99.5433C110.862 104.204 105.203 106.535 98.5442 106.535H34.6236ZM34.6236 95.8812H98.5442C102.273 95.8812 105.425 94.5939 107.999 92.0193C110.574 89.4447 111.861 86.2931 111.861 82.5644C111.861 78.8357 110.574 75.684 107.999 73.1095C105.425 70.5349 102.273 69.2476 98.5442 69.2476H90.5541V58.5942C90.5541 51.2255 87.9574 44.9444 82.7638 39.7509C77.5703 34.5573 71.2892 31.9606 63.9206 31.9606C56.5519 31.9606 50.2708 34.5573 45.0773 39.7509C39.8837 44.9444 37.287 51.2255 37.287 58.5942H34.6236C29.4744 58.5942 25.0799 60.4141 21.44 64.054C17.8001 67.694 15.9801 72.0885 15.9801 77.2377C15.9801 82.3868 17.8001 86.7814 21.44 90.4213C25.0799 94.0612 29.4744 95.8812 34.6236 95.8812Z" fill="#1A5824"/>
</g>
</svg>
