<svg width="126" height="126" viewBox="0 0 126 126" fill="none" xmlns="http://www.w3.org/2000/svg">
<mask id="mask0_1781_109" style="mask-type:alpha" maskUnits="userSpaceOnUse" x="0" y="0" width="126" height="126">
<rect width="125.729" height="125.729" fill="#D9D9D9"/>
</mask>
<g mask="url(#mask0_1781_109)">
<path d="M36.6711 115.252V94.2966H0L20.1691 62.8643H10.4774L47.1485 10.4771L62.8647 33.0036L78.5809 10.4771L115.252 62.8643H105.56L125.729 94.2966H89.0583V115.252H68.1034V94.2966H57.626V115.252H36.6711ZM87.6177 83.8192H106.608L86.308 52.3868H95.0828L78.5809 28.8126L69.2821 42.0404L83.8196 62.8643H74.128L87.6177 83.8192ZM19.1213 83.8192H75.1757L54.8756 52.3868H63.6505L47.1485 28.8126L30.6465 52.3868H39.4214L19.1213 83.8192ZM19.1213 83.8192H39.4214H30.6465H63.6505H54.8756H75.1757H19.1213ZM87.6177 83.8192H74.128H83.8196H69.2821H95.0828H86.308H106.608H87.6177Z" fill="#1A5824"/>
</g>
</svg>
