<svg width="137" height="137" viewBox="0 0 137 137" fill="none" xmlns="http://www.w3.org/2000/svg">
<mask id="mask0_1781_864" style="mask-type:alpha" maskUnits="userSpaceOnUse" x="0" y="0" width="137" height="137">
<rect x="0.00012207" width="136.25" height="136.25" fill="#D9D9D9"/>
</mask>
<g mask="url(#mask0_1781_864)">
<path d="M22.7084 119.219V28.3859C22.7084 25.2635 23.8201 22.5905 26.0437 20.367C28.2672 18.1435 30.9401 17.0317 34.0625 17.0317H68.125C71.2474 17.0317 73.9204 18.1435 76.1439 20.367C78.3674 22.5905 79.4792 25.2635 79.4792 28.3859V68.1255H85.1563C88.2787 68.1255 90.9516 69.2372 93.1752 71.4608C95.3987 73.6843 96.5104 76.3572 96.5104 79.4796V105.027C96.5104 106.635 97.0545 107.983 98.1426 109.071C99.2307 110.16 100.579 110.704 102.188 110.704C103.796 110.704 105.144 110.16 106.232 109.071C107.321 107.983 107.865 106.635 107.865 105.027V64.1515C107.013 64.6246 106.114 64.9321 105.168 65.074C104.222 65.216 103.228 65.2869 102.188 65.2869C98.2136 65.2869 94.8546 63.915 92.1107 61.171C89.3668 58.4271 87.9948 55.0682 87.9948 51.0942C87.9948 48.0665 88.8227 45.3462 90.4785 42.9334C92.1344 40.5207 94.3342 38.7939 97.0781 37.7531L85.1563 25.8312L91.1172 19.8703L112.122 40.3078C113.542 41.727 114.606 43.3829 115.316 45.2752C116.025 47.1676 116.38 49.1073 116.38 51.0942V105.027C116.38 109 115.008 112.359 112.264 115.103C109.52 117.847 106.161 119.219 102.188 119.219C98.2136 119.219 94.8546 117.847 92.1107 115.103C89.3668 112.359 87.9948 109 87.9948 105.027V76.6411H79.4792V119.219H22.7084ZM34.0625 56.7713H68.125V28.3859H34.0625V56.7713ZM102.188 56.7713C103.796 56.7713 105.144 56.2273 106.232 55.1391C107.321 54.051 107.865 52.7027 107.865 51.0942C107.865 49.4857 107.321 48.1374 106.232 47.0493C105.144 45.9612 103.796 45.4171 102.188 45.4171C100.579 45.4171 99.2307 45.9612 98.1426 47.0493C97.0545 48.1374 96.5104 49.4857 96.5104 51.0942C96.5104 52.7027 97.0545 54.051 98.1426 55.1391C99.2307 56.2273 100.579 56.7713 102.188 56.7713ZM34.0625 107.865H68.125V68.1255H34.0625V107.865Z" fill="#1A5824"/>
</g>
</svg>
