<svg width="123" height="118" viewBox="0 0 123 118" fill="none" xmlns="http://www.w3.org/2000/svg">
<path fill-rule="evenodd" clip-rule="evenodd" d="M70.6849 109.538H21.745C10.9165 109.538 4.81767 97.9125 7.65387 87.0183C10.3074 76.8564 17.6355 75.1361 26.3094 75.3813L27.0241 72.4987C29.5138 62.4495 36.6203 55.0432 46.342 54.1261C57.9025 53.0337 65.3678 60.4266 69.9047 71.2447C74.0855 71.5243 77.449 71.8749 81.0767 74.5686C85.7707 78.0594 88.2137 84.0929 88.2261 90.2014C88.2489 101.567 80.8845 109.538 70.6841 109.538M106.129 39.3129H75.6616C69.7819 39.3129 66.6299 32.9883 68.1497 27.1303C69.8067 20.8412 74.5747 20.8142 79.4989 20.9571C81.1978 14.0943 83.6284 8.3947 91.0862 7.69253C98.3164 7.00395 102.075 11.8553 104.775 18.2988C107.364 18.4762 109.584 18.4845 111.859 20.1747C118.946 25.4371 116.11 39.313 106.128 39.313L106.129 39.3129ZM75.6641 46.9529H106.131C122.762 46.9529 128.621 23.4367 115.757 13.8742C113.94 12.5232 111.784 11.5435 109.3 11.0803C105.463 3.75728 98.2682 -0.664335 90.4927 0.0816373C83.1206 0.783781 77.0516 5.93777 74.3172 13.3785C68.1453 14.113 63.1982 18.3811 61.4604 25.0395C58.6346 35.8023 65.2826 46.9521 75.6648 46.9521L75.6641 46.9529ZM21.7442 117.178H70.6841C84.6989 117.178 95.2015 105.767 95.165 90.1969C95.145 81.5281 91.6073 73.2096 84.9674 68.2685C82.0533 66.1047 78.5424 64.5846 74.4385 63.9898C68.8463 52.5227 57.9071 45.3584 45.7427 46.5133C34.1993 47.6004 24.9249 55.9593 21.0864 67.7445C11.3968 68.407 3.6291 74.6722 0.955639 84.9278C-3.15968 100.744 6.43193 117.176 21.7439 117.176L21.7442 117.178Z" fill="#D8F3DC"/>
</svg>
