<svg width="112" height="112" viewBox="0 0 112 112" fill="none" xmlns="http://www.w3.org/2000/svg">
<path fill-rule="evenodd" clip-rule="evenodd" d="M89.6561 65.2661C83.952 65.2661 78.2477 67.5306 73.8947 72.0658C65.1892 81.1302 65.1892 95.827 73.8947 104.891C78.2479 109.424 83.952 111.691 89.6561 111.691C95.3629 111.691 101.068 109.424 105.42 104.891C114.127 95.827 114.127 81.1302 105.42 72.0658C101.068 67.5332 95.3629 65.2661 89.6561 65.2661ZM101.815 101.136C98.5687 104.517 94.2485 106.381 89.6561 106.381C85.0664 106.381 80.7462 104.517 77.5005 101.136C70.7967 94.156 70.7967 82.8002 77.5005 75.8191C80.7462 72.4359 85.0664 70.5755 89.6561 70.5755C94.2485 70.5755 98.5687 72.436 101.815 75.8191C105.061 79.1986 106.851 83.6941 106.851 88.4758C106.851 93.2575 105.061 97.7558 101.815 101.135V101.136ZM96.8967 84.9642H91.7963V79.6535C91.7963 78.188 90.6541 76.9987 89.2466 76.9987C87.839 76.9987 86.6968 78.188 86.6968 79.6535V87.6192C86.6968 89.0848 87.8391 90.2741 89.2466 90.2741H96.8969C98.3045 90.2741 99.4466 89.0848 99.4466 87.6192C99.4466 86.1536 98.3044 84.9644 96.8969 84.9644L96.8967 84.9642ZM61.1972 103.55C61.2555 103.55 58.7631 103.547 58.8205 103.544C60.1472 103.451 61.1972 102.3 61.1972 100.894C61.1972 99.4287 60.055 98.2394 58.6475 98.2394H10.1983C7.38575 98.2394 5.09881 95.858 5.09881 92.9298V37.1709H99.4495V55.7569C99.4495 57.2225 100.592 58.4117 101.999 58.4117C103.407 58.4117 104.549 57.2224 104.549 55.7569V21.241C104.549 15.3831 99.9749 10.6204 94.349 10.6204H84.1489V9.29252C84.1489 4.16835 80.1453 0 75.2242 0C70.3032 0 66.2996 4.16858 66.2996 9.29252V10.6204H40.8V9.29252C40.8 4.16835 36.7965 0 31.8754 0C26.9532 0 22.9499 4.16858 22.9499 9.29252V10.6204H10.2001C4.575 10.6204 0 15.3831 0 21.241V92.9302C0 98.7872 4.575 103.551 10.2001 103.551L61.1972 103.55ZM5.09814 21.2406C5.09814 18.3112 7.3853 15.93 10.1976 15.93H22.9474V17.2579C22.9474 22.382 26.951 26.5504 31.8729 26.5504C36.7942 26.5504 40.7976 22.3818 40.7976 17.2579V15.93H66.2972V17.2579C66.2972 22.382 70.3007 26.5504 75.2218 26.5504C80.1429 26.5504 84.1464 22.3818 84.1464 17.2579V15.93H94.3465C97.1599 15.93 99.4469 18.3114 99.4469 21.2406V31.8611H5.09613L5.09814 21.2406ZM28.0478 9.29228C28.0478 7.09662 29.7641 5.30944 31.8729 5.30944C33.9817 5.30944 35.6981 7.09657 35.6981 9.29228V17.258C35.6981 19.4536 33.9817 21.2408 31.8729 21.2408C29.7641 21.2408 28.0478 19.4537 28.0478 17.258V9.29228ZM71.3971 9.29228C71.3971 7.09662 73.1135 5.30944 75.2222 5.30944C77.331 5.30944 79.0474 7.09657 79.0474 9.29228V17.258C79.0474 19.4536 77.331 21.2408 75.2222 21.2408C73.1135 21.2408 71.3971 19.4537 71.3971 17.258V9.29228ZM26.7717 42.4818C21.8504 42.4818 17.847 46.6504 17.847 51.7744C17.847 56.8983 21.8506 61.0678 26.7717 61.0678C31.6939 61.0678 35.6972 56.8985 35.6972 51.7744C35.6972 46.6502 31.6937 42.4818 26.7717 42.4818ZM26.7717 55.7572C24.6629 55.7572 22.9465 53.9701 22.9465 51.7744C22.9465 49.5787 24.6629 47.7915 26.7717 47.7915C28.8805 47.7915 30.5968 49.5787 30.5968 51.7744C30.5968 53.9701 28.8805 55.7572 26.7717 55.7572ZM52.2713 42.4818C47.3491 42.4818 43.3457 46.6504 43.3457 51.7744C43.3457 56.8983 47.3493 61.0678 52.2713 61.0678C57.1926 61.0678 61.1959 56.8985 61.1959 51.7744C61.1959 46.6502 57.1924 42.4818 52.2713 42.4818ZM52.2713 55.7572C50.1625 55.7572 48.4461 53.9701 48.4461 51.7744C48.4461 49.5787 50.1625 47.7915 52.2713 47.7915C54.3801 47.7915 56.0964 49.5787 56.0964 51.7744C56.0964 53.9701 54.3801 55.7572 52.2713 55.7572ZM68.8462 51.7744C68.8462 56.8985 72.8498 61.0678 77.7709 61.0678C82.6931 61.0678 86.6964 56.8985 86.6964 51.7744C86.6964 46.6502 82.6928 42.4818 77.7709 42.4818C72.8495 42.4818 68.8462 46.6504 68.8462 51.7744ZM81.596 51.7744C81.596 53.97 79.8796 55.7572 77.7709 55.7572C75.6621 55.7572 73.9457 53.9701 73.9457 51.7744C73.9457 49.5787 75.6621 47.7915 77.7709 47.7915C79.8796 47.7915 81.596 49.5787 81.596 51.7744ZM52.2704 69.0326C47.3482 69.0326 43.3449 73.2011 43.3449 78.326C43.3449 83.4502 47.3484 87.6185 52.2704 87.6185C57.1917 87.6185 61.195 83.45 61.195 78.326C61.195 73.2009 57.1915 69.0326 52.2704 69.0326ZM52.2704 82.3089C50.1616 82.3089 48.4452 80.5217 48.4452 78.326C48.4452 76.1303 50.1616 74.3432 52.2704 74.3432C54.3792 74.3432 56.0955 76.1303 56.0955 78.326C56.0955 80.5217 54.3792 82.3089 52.2704 82.3089ZM26.7708 69.0326C21.8495 69.0326 17.8462 73.2011 17.8462 78.326C17.8462 83.4502 21.8497 87.6185 26.7708 87.6185C31.693 87.6185 35.6963 83.45 35.6963 78.326C35.6963 73.2009 31.6928 69.0326 26.7708 69.0326ZM26.7708 82.3089C24.662 82.3089 22.9456 80.5217 22.9456 78.326C22.9456 76.1303 24.662 74.3432 26.7708 74.3432C28.8796 74.3432 30.5959 76.1303 30.5959 78.326C30.5959 80.5217 28.8796 82.3089 26.7708 82.3089Z" fill="#D8F3DC"/>
</svg>
