<svg width="113" height="113" viewBox="0 0 113 113" fill="none" xmlns="http://www.w3.org/2000/svg">
<path d="M29.2001 72.1088V13.5405C29.2001 12.3007 28.1954 11.2949 26.9556 11.2949C25.7159 11.2949 24.71 12.3007 24.71 13.5405V72.1088C20.2299 72.8662 16.4328 75.8326 14.6138 79.9962C12.7937 84.16 13.1969 88.9609 15.6853 92.7635C18.1727 96.5663 22.411 98.8576 26.9556 98.8576C31.4992 98.8576 35.7375 96.5663 38.2249 92.7635C40.7134 88.9606 41.1167 84.1598 39.2965 79.9962C37.4775 75.8323 33.6802 72.8661 29.2001 72.1088ZM26.9556 94.3521C24.5741 94.3521 22.2896 93.4064 20.6063 91.7222C18.9221 90.038 17.9764 87.7545 17.9764 85.3729C17.9764 82.9913 18.9221 80.708 20.6063 79.0236C22.2894 77.3405 24.574 76.3937 26.9556 76.3937C29.336 76.3937 31.6205 77.3405 33.3038 79.0236C34.988 80.7078 35.9337 82.9913 35.9337 85.3729C35.9337 87.7545 34.988 90.0378 33.3038 91.7222C31.6207 93.4064 29.3361 94.3521 26.9556 94.3521ZM112.257 56.1925C112.242 43.4563 107.31 31.2168 98.4928 22.0251C89.6752 12.8333 77.6507 7.40196 64.927 6.85816C64.6285 6.83811 64.3345 6.80693 64.0293 6.80693H63.9413C63.8332 6.80693 63.7163 6.82252 63.616 6.82698C63.3665 6.82698 63.1181 6.80693 62.8664 6.80693C55.0345 6.81695 47.3188 8.69942 40.3613 12.295C39.9803 7.8985 37.4683 3.96877 33.639 1.77763C29.8082 -0.414513 25.1479 -0.589398 21.1645 1.3098C17.1823 3.209 14.3832 6.94049 13.6746 11.296H11.2441C10.0043 11.296 8.99962 12.3018 8.99962 13.5416C8.99962 14.7814 10.0043 15.7861 11.2441 15.7861H13.4886V20.275H8.99968C7.75991 20.275 6.75408 21.2808 6.75408 22.5206C6.75408 23.7604 7.75991 24.7651 8.99968 24.7651H13.4886V29.254H11.2441C10.0043 29.254 8.99962 30.2587 8.99962 31.4985C8.99962 32.7383 10.0043 33.7441 11.2441 33.7441H13.4886V38.2331H8.99968C7.75991 38.2331 6.75408 39.2378 6.75408 40.4776C6.75408 41.7173 7.75991 42.7232 8.99968 42.7232H13.4886V47.2121H11.2441C10.0043 47.2121 8.99962 48.2168 8.99962 49.4566C8.99962 50.6964 10.0043 51.7022 11.2441 51.7022H13.4886V56.1911H8.99968C7.75991 56.1911 6.75408 57.1958 6.75408 58.4356C6.75408 59.6754 7.75991 60.6812 8.99968 60.6812H13.4886V61.9967V61.9956C6.62262 65.9487 1.84625 72.7246 0.432732 80.5196C-0.9819 88.3135 1.10998 96.3358 6.14926 102.448C11.1897 108.561 18.6662 112.142 26.587 112.239C34.5089 112.336 42.0712 108.938 47.2585 102.952C52.2867 104.668 57.5609 105.553 62.8731 105.576C63.1672 105.576 63.459 105.56 63.7531 105.553H63.7854C63.8678 105.562 63.9525 105.567 64.036 105.567C64.1162 105.567 64.1953 105.562 64.2744 105.553C64.349 105.553 64.4181 105.529 64.4994 105.527H64.4983C77.3004 105.092 89.4326 99.7065 98.3406 90.5045C107.249 81.3016 112.239 68.9997 112.258 56.1916L112.257 56.1925ZM65.1181 100.936V80.8864H79.8059C76.5412 92.2203 71.1543 100.023 65.1181 100.936ZM65.1181 76.3961V58.4378H83.0273H83.0262C82.9115 64.4786 82.2097 70.4922 80.9299 76.3961H65.1181ZM40.4253 61.998V58.4381H60.628V76.3964H52.3228C50.212 70.3257 45.9892 65.2163 40.4253 61.9983V61.998ZM78.545 27.323C78.5539 27.5491 78.5973 27.7719 78.673 27.9857C79.0774 29.1241 79.445 30.3026 79.7959 31.5011L65.1169 31.5V11.4122H65.3419C70.3087 12.2944 75.1553 18.0833 78.545 27.323ZM107.651 53.9483H87.5228C87.417 47.9133 86.7498 41.9016 85.5289 35.99H102.908C105.735 41.5751 107.351 47.6948 107.651 53.9483ZM83.0327 53.9483H65.1158V35.99H80.9343C82.2242 41.8925 82.9269 47.9076 83.0327 53.9483ZM40.4219 35.99H60.6246V53.9483H40.4219V35.99ZM48.1912 31.5011C48.5432 30.2892 48.9119 29.1062 49.314 27.9857H49.3129C49.3708 27.7919 49.3998 27.5914 49.4009 27.3909C52.3326 19.3708 56.3593 13.9406 60.6244 12.048V31.4988L48.1912 31.5011ZM45.0488 26.2847L45.0477 26.2836C44.982 26.4819 44.9474 26.688 44.9452 26.8962C44.4384 28.3577 43.9795 29.9103 43.5473 31.5001H40.4217V17.358C44.2736 15.1303 48.434 13.4862 52.7681 12.4782C49.3171 16.5328 46.6908 21.2222 45.0367 26.2837L45.0488 26.2847ZM87.5114 58.4361H107.652H107.651C107.351 64.6896 105.735 70.8093 102.908 76.3944H85.5421C86.7529 70.4819 87.4112 64.4703 87.5114 58.4361ZM100.327 31.4988H84.4468C84.0247 29.9527 83.578 28.4277 83.0734 26.9685L83.0723 26.9696C83.0645 26.7357 83.0199 26.504 82.9408 26.2846C81.3714 21.5527 78.9797 17.1351 75.8767 13.233C85.9028 16.2927 94.5488 22.7514 100.327 31.4988ZM26.9559 107.752C20.1834 107.759 13.772 104.706 9.50691 99.4461C5.24297 94.1853 3.58336 87.2802 4.99004 80.6569C6.39689 74.0327 10.7211 68.3986 16.755 65.3263C17.5047 64.9431 17.9758 64.1723 17.977 63.3313V13.4718C17.977 10.2638 19.6879 7.29956 22.4659 5.69556C25.2439 4.09155 28.6669 4.09155 31.4449 5.69556C34.2229 7.29956 35.9338 10.2638 35.9338 13.4718V63.3313C35.9338 64.1734 36.405 64.9465 37.1558 65.3308C40.8451 67.201 43.9428 70.0581 46.106 73.5846C48.268 77.1111 49.4098 81.1681 49.403 85.3051C49.403 86.0169 49.3606 86.7197 49.2949 87.4148C49.2771 87.6253 49.2437 87.8325 49.2181 88.043C49.1579 88.5298 49.0855 89.0132 48.993 89.4911C48.9485 89.7161 48.8984 89.96 48.8471 90.1939C48.7458 90.6428 48.6321 91.084 48.5063 91.5161C48.4394 91.7411 48.3737 91.9895 48.298 92.2235C48.161 92.6434 48.0039 93.0544 47.8491 93.4621C47.7566 93.6871 47.6764 93.9378 47.5728 94.1717C47.4202 94.5259 47.2431 94.8679 47.0727 95.2109C46.743 95.8848 46.3854 96.5242 45.9889 97.1547C45.9176 97.2716 45.8496 97.3797 45.7761 97.5044C45.5043 97.9199 45.2103 98.3265 44.9095 98.7275L44.9084 98.7286C40.6835 104.401 34.0292 107.746 26.9559 107.752ZM50.1528 98.9283C50.7086 98.0015 51.2077 97.0402 51.6477 96.0533C51.6699 96.0021 51.6967 95.9542 51.7189 95.9052H51.7201C52.1445 94.9038 52.5076 93.879 52.8083 92.8341C52.8963 92.5378 52.9632 92.237 53.0333 91.9363C53.2305 91.1599 53.3942 90.3701 53.5223 89.5681C53.5736 89.2429 53.6304 88.9199 53.6705 88.5935C54.0191 86.0304 53.9567 83.4273 53.4889 80.8831H60.6266V101.003V101.002C57.0322 100.823 53.4732 100.208 50.0268 99.1711C50.0758 99.0943 50.1083 98.9985 50.1528 98.9283ZM75.6843 99.2001C79.8858 93.7921 82.8788 87.5466 84.4639 80.8853H100.328C94.5114 89.6873 85.7908 96.1691 75.6843 99.2001Z" fill="#D8F3DC"/>
</svg>
