<svg width="83" height="83" viewBox="0 0 83 83" fill="none" xmlns="http://www.w3.org/2000/svg">
<circle cx="41.5" cy="41.5" r="41.5" fill="#19663F"/>
<path d="M28.5622 66.274C31.6299 68.8004 35.6678 70.0634 40.6758 70.0634C46.1819 70.0634 50.4688 68.9595 53.5365 66.7519C56.6043 64.5226 58.1381 60.9456 58.1381 56.0204L44.2154 45.4167V55.511C44.2154 56.7635 43.9663 57.7826 43.4682 58.5681C42.9962 59.3536 42.1703 59.7463 40.9904 59.7463C39.9416 59.7463 39.1288 59.4279 38.552 58.7909C38.0013 58.154 37.7261 57.0609 37.7261 55.511V27.4569C37.7261 26.2044 37.9489 25.2067 38.3946 24.4637C38.8404 23.6994 39.7056 23.3173 40.9904 23.3173C42.0916 23.3173 42.9044 23.6145 43.4288 24.2089C43.9532 24.7821 44.2154 25.9072 44.2154 27.5843V35.8636L57.9808 26.1832C57.9808 23.2324 57.2466 20.7911 55.7783 18.8592C54.31 16.9061 52.2911 15.4413 49.7216 14.4648C47.1782 13.4883 44.2679 13 40.9904 13C34.9861 13 30.6467 14.4436 27.9723 17.3307C25.3241 20.2178 24 24.3787 24 29.8134V55.6704C24 60.2134 25.5207 63.748 28.5622 66.274Z" fill="white"/>
</svg>
